<svg width="512" height="512" xmlns="http://www.w3.org/2000/svg" preserveAspectRatio="xMidYMid meet">
 <metadata>Created by potrace 1.16, written by Peter Selinger 2001-2019</metadata>

 <g>
  <title>background</title>
  <rect fill="none" id="canvas_background" height="402" width="582" y="-1" x="-1"/>
 </g>
 <g>
  <title>Layer 1</title>
  <path id="svg_2" d="m52.700001,49.499993c-5.3,2 -11.3,6.6 -14.8,11.3c-6.3,8.6 -5.9,-6 -5.9,203.300003c0,190.300003 0,190.800003 2.1,196.300003c2.3,6.4 8.6,13.3 15,16.8l4.4,2.3l130.500002,0l130.500002,0l4.3,-2.3c5.5,-2.9 11.5,-8.9 14.4,-14.4c2.2,-4 2.3,-5.6 2.6,-25.6l0.3,-21.2l60.500001,0c58.600001,0 60.700001,-0.1 66.700001,-2.1c15,-5 26.8,-17.1 31.1,-31.8c1.4,-4.7 1.6,-14 1.6,-70.100001c0,-56.100001 -0.2,-65.400001 -1.6,-70.100001c-4.3,-14.8 -16.8,-27.4 -31.5,-32c-5.7,-1.8 -10,-1.9 -66.500001,-1.9l-60.400001,0l0,-24.5l0,-24.5l-47.600001,-55.500001l-47.600001,-55.500001l-92.100001,0.1c-76.700001,0 -92.800001,0.3 -96.000001,1.4zm171.300003,58.000001c0,41.600001 0.1,43.700001 2.1,49.000001c2.8,7.4 10,14.6 17.4,17.4c5.3,2 7.5,2.1 41.000001,2.1l35.500001,0l0,16l0,16l-76.500001,0c-74.900001,0 -76.700001,0 -82.800001,2.1c-15,5 -26.8,17.1 -31.1,31.8c-1.4,4.7 -1.6,14.1 -1.6,70.200001c0,60.700001 0.1,65.100001 1.9,70.800001c4.6,14.7 17.2,27.2 32,31.5c4.8,1.4 15.1,1.6 81.900001,1.6l76.400001,0l-0.4,17.7c-0.3,15.8 -0.5,18.2 -2.4,21.3c-2.8,4.8 -7.5,7.8 -13.7,8.5c-2.9,0.3 -58.700001,0.5 -124.200002,0.3c-118.000002,-0.3 -119.000002,-0.3 -122.500002,-2.4c-4.8,-2.8 -7.8,-7.5 -8.5,-13.7c-0.3,-2.9 -0.5,-87.500001 -0.3,-188.200003c0.3,-180.900003 0.3,-183.000003 2.3,-186.400003c2.5,-4.2 6.2,-7.1 10.6,-8.1c1.9,-0.4 39.300001,-0.8 83.200001,-0.9l79.700001,-0.1l0,43.500001zm54.400001,10.5l35.400001,41.500001l-26.1,0.3c-14.4,0.2 -28.5,0 -31.4,-0.3c-6.2,-0.7 -10.9,-3.7 -13.7,-8.5c-2,-3.3 -2.1,-5.3 -2.4,-40.500001c-0.3,-33.1 -0.2,-36.800001 1.2,-35.500001c0.8,0.8 17.5,20.2 37.000001,43.000001zm181.700003,109.100002c7.2,3.4 13.4,9.6 16.8,16.8l2.6,5.6l0,61.500001c0,46.700001 -0.3,62.500001 -1.3,65.700001c-2.7,9.1 -11.8,18.4 -21,21.5c-4.9,1.7 -274.000004,2.4 -284.500004,0.8c-3.8,-0.6 -8.6,-2 -10.8,-3.1c-5.8,-2.9 -11.7,-9.3 -14.8,-15.8l-2.6,-5.6l-0.3,-57.400001c-0.3,-59.900001 0.1,-67.800001 3.9,-75.200001c4.4,-8.6 13.4,-15.1 23.1,-16.8c3,-0.5 66.600001,-0.8 144.300002,-0.7l139.000002,0.1l5.6,2.6z"/>
  <text stroke="null" transform="matrix(2.286057001023329,0,0,3.987445094049915,-414.77987472943215,113.96546354578129) " font-weight="bold" xml:space="preserve" text-anchor="start" font-family="Arvo, sans-serif" font-size="24" id="svg_6" y="57.189848" x="247.519869" fill-opacity="null" stroke-opacity="null" stroke-width="0" fill="#000000">PowerScript</text>
 </g>
</svg>