<?xml version="1.0" standalone="no"?>
<!DOCTYPE svg PUBLIC "-//W3C//DTD SVG 20010904//EN"
 "http://www.w3.org/TR/2001/REC-SVG-20010904/DTD/svg10.dtd">
<svg version="1.0" xmlns="http://www.w3.org/2000/svg"
 width="512.000000pt" height="512.000000pt" viewBox="0 0 512.000000 512.000000"
 preserveAspectRatio="xMidYMid meet">
<metadata>
Created by potrace 1.16, written by Peter Selinger 2001-2019
</metadata>
<g transform="translate(0.000000,512.000000) scale(0.100000,-0.100000)"
fill="#000000" stroke="none">
<path d="M527 4625 c-53 -20 -113 -66 -148 -113 -63 -86 -59 60 -59 -2033 0
-1903 0 -1908 21 -1963 23 -64 86 -133 150 -168 l44 -23 1305 0 1305 0 43 23
c55 29 115 89 144 144 22 40 23 56 26 256 l3 212 605 0 c586 0 607 1 667 21
150 50 268 171 311 318 14 47 16 140 16 701 0 561 -2 654 -16 701 -43 148
-168 274 -315 320 -57 18 -100 19 -665 19 l-604 0 0 245 0 245 -476 555 -476
555 -921 -1 c-767 0 -928 -3 -960 -14z m1713 -580 c0 -416 1 -437 21 -490 28
-74 100 -146 174 -174 53 -20 75 -21 410 -21 l355 0 0 -160 0 -160 -765 0
c-749 0 -767 0 -828 -21 -150 -50 -268 -171 -311 -318 -14 -47 -16 -141 -16
-702 0 -607 1 -651 19 -708 46 -147 172 -272 320 -315 48 -14 151 -16 819 -16
l764 0 -4 -177 c-3 -158 -5 -182 -24 -213 -28 -48 -75 -78 -137 -85 -29 -3
-587 -5 -1242 -3 -1180 3 -1190 3 -1225 24 -48 28 -78 75 -85 137 -3 29 -5
875 -3 1882 3 1809 3 1830 23 1864 25 42 62 71 106 81 19 4 393 8 832 9 l797
1 0 -435z m544 -105 l354 -415 -261 -3 c-144 -2 -285 0 -314 3 -62 7 -109 37
-137 85 -20 33 -21 53 -24 405 -3 331 -2 368 12 355 8 -8 175 -202 370 -430z
m1817 -1091 c72 -34 134 -96 168 -168 l26 -56 0 -615 c0 -467 -3 -625 -13
-657 -27 -91 -118 -184 -210 -215 -49 -17 -2740 -24 -2845 -8 -38 6 -86 20
-108 31 -58 29 -117 93 -148 158 l-26 56 -3 574 c-3 599 1 678 39 752 44 86
134 151 231 168 30 5 666 8 1443 7 l1390 -1 56 -26z"/>
<path d="M1974 2549 c-84 -24 -181 -125 -205 -212 -17 -64 -7 -194 20 -245 28
-55 88 -115 143 -143 37 -19 65 -24 194 -29 125 -5 157 -10 185 -26 106 -62
106 -206 -1 -268 -30 -18 -52 -21 -150 -21 -97 0 -120 3 -149 20 -43 25 -71
63 -80 106 l-7 34 -83 3 -84 3 5 -59 c7 -73 36 -131 94 -188 71 -69 126 -84
304 -84 178 0 233 15 304 84 76 74 91 114 91 236 0 120 -15 160 -85 230 -72
72 -106 83 -276 90 -125 5 -157 10 -185 26 -106 62 -106 206 1 268 30 18 52
21 150 21 98 0 120 -3 150 -21 41 -24 80 -77 80 -110 0 -23 2 -24 86 -24 l87
0 -6 54 c-11 105 -91 207 -193 245 -47 18 -76 21 -207 20 -84 0 -166 -5 -183
-10z"/>
<path d="M2934 2550 c-87 -27 -181 -123 -204 -211 -7 -26 -10 -156 -8 -362 3
-314 4 -323 26 -365 29 -55 89 -115 144 -144 40 -21 56 -23 232 -25 l189 -1
68 -68 69 -69 62 63 63 62 -61 62 -61 63 23 34 c42 60 45 94 42 434 -3 314 -4
323 -26 365 -29 55 -89 115 -144 144 -39 21 -57 23 -213 25 -93 1 -184 -2
-201 -7z m337 -176 c47 -28 77 -76 84 -137 12 -95 1 -509 -14 -536 -13 -23
-14 -23 -122 85 l-109 109 -62 -63 -63 -62 85 -86 85 -86 -78 5 c-88 6 -130
26 -164 76 -30 45 -35 102 -31 366 3 208 5 233 23 264 43 73 94 92 236 87 74
-2 105 -7 130 -22z"/>
<path d="M3680 2000 l0 -560 400 0 400 0 0 80 0 80 -320 0 -320 0 0 480 0 480
-80 0 -80 0 0 -560z"/>
</g>
</svg>
